<mxfile host="app.diagrams.net" modified="2023-04-01T14:24:50.065Z" agent="5.0 (X11; Ubuntu)" etag="yXHaZ4-9dnK0mWcHHie_" version="20.8.20" type="github">
  <diagram id="C5RBs43oDa-KdzZeNtuy" name="Page-1">
    <mxGraphModel dx="1429" dy="536" grid="1" gridSize="10" guides="1" tooltips="1" connect="1" arrows="1" fold="1" page="1" pageScale="1" pageWidth="1169" pageHeight="827" math="0" shadow="0">
      <root>
        <mxCell id="WIyWlLk6GJQsqaUBKTNV-0" />
        <mxCell id="WIyWlLk6GJQsqaUBKTNV-1" parent="WIyWlLk6GJQsqaUBKTNV-0" />
        <mxCell id="i2PrEZZCWFZVx5Nd_FOy-1" value="Distributor" style="swimlane;fontStyle=0;childLayout=stackLayout;horizontal=1;startSize=26;fillColor=none;horizontalStack=0;resizeParent=1;resizeParentMax=0;resizeLast=0;collapsible=1;marginBottom=0;" vertex="1" parent="WIyWlLk6GJQsqaUBKTNV-1">
          <mxGeometry x="540" y="340" width="140" height="110" as="geometry" />
        </mxCell>
        <mxCell id="i2PrEZZCWFZVx5Nd_FOy-13" value="&lt;div align=&quot;center&quot;&gt;includes generic methods to &quot;distribute&quot; technologies&amp;nbsp; &lt;/div&gt;" style="text;html=1;strokeColor=none;fillColor=none;align=center;verticalAlign=middle;whiteSpace=wrap;rounded=0;" vertex="1" parent="i2PrEZZCWFZVx5Nd_FOy-1">
          <mxGeometry y="26" width="140" height="84" as="geometry" />
        </mxCell>
        <mxCell id="i2PrEZZCWFZVx5Nd_FOy-9" value="TechnologyType" style="swimlane;fontStyle=0;childLayout=stackLayout;horizontal=1;startSize=26;fillColor=none;horizontalStack=0;resizeParent=1;resizeParentMax=0;resizeLast=0;collapsible=1;marginBottom=0;" vertex="1" parent="WIyWlLk6GJQsqaUBKTNV-1">
          <mxGeometry x="130" y="340" width="140" height="110" as="geometry" />
        </mxCell>
        <mxCell id="i2PrEZZCWFZVx5Nd_FOy-15" value="enum class with technology types" style="text;html=1;strokeColor=none;fillColor=none;align=center;verticalAlign=middle;whiteSpace=wrap;rounded=0;" vertex="1" parent="i2PrEZZCWFZVx5Nd_FOy-9">
          <mxGeometry y="26" width="140" height="84" as="geometry" />
        </mxCell>
        <mxCell id="i2PrEZZCWFZVx5Nd_FOy-16" value="ConnectionCategory" style="swimlane;fontStyle=0;childLayout=stackLayout;horizontal=1;startSize=26;fillColor=none;horizontalStack=0;resizeParent=1;resizeParentMax=0;resizeLast=0;collapsible=1;marginBottom=0;" vertex="1" parent="WIyWlLk6GJQsqaUBKTNV-1">
          <mxGeometry x="330" y="180" width="140" height="110" as="geometry" />
        </mxCell>
        <mxCell id="i2PrEZZCWFZVx5Nd_FOy-17" value="Connection category type class" style="text;html=1;strokeColor=none;fillColor=none;align=center;verticalAlign=middle;whiteSpace=wrap;rounded=0;" vertex="1" parent="i2PrEZZCWFZVx5Nd_FOy-16">
          <mxGeometry y="26" width="140" height="84" as="geometry" />
        </mxCell>
        <mxCell id="i2PrEZZCWFZVx5Nd_FOy-20" value="Technology" style="swimlane;fontStyle=0;childLayout=stackLayout;horizontal=1;startSize=26;fillColor=none;horizontalStack=0;resizeParent=1;resizeParentMax=0;resizeLast=0;collapsible=1;marginBottom=0;" vertex="1" parent="WIyWlLk6GJQsqaUBKTNV-1">
          <mxGeometry x="330" y="340" width="140" height="110" as="geometry" />
        </mxCell>
        <mxCell id="i2PrEZZCWFZVx5Nd_FOy-21" value="Technology dataclass" style="text;html=1;strokeColor=none;fillColor=none;align=center;verticalAlign=middle;whiteSpace=wrap;rounded=0;" vertex="1" parent="i2PrEZZCWFZVx5Nd_FOy-20">
          <mxGeometry y="26" width="140" height="84" as="geometry" />
        </mxCell>
      </root>
    </mxGraphModel>
  </diagram>
</mxfile>
